<svg width="199" height="203" viewBox="0 0 199 203" fill="none" xmlns="http://www.w3.org/2000/svg">
<g clip-path="url(#clip0_6_77)">
<mask id="mask0_6_77" style="mask-type:luminance" maskUnits="userSpaceOnUse" x="0" y="0" width="199" height="203">
<path d="M198.2 0H0V203H198.2V0Z" fill="white"/>
</mask>
<g mask="url(#mask0_6_77)">
<path d="M175.1 203H14.7C6.6 203 0 196.4 0 188.3C0 180.2 6.6 173.6 14.7 173.6H175.1C183.2 173.6 189.8 180.2 189.8 188.3C189.7 196.4 183.1 203 175.1 203Z" fill="#2561A3"/>
<path d="M33.914 184.576C33.8271 183.842 33.4744 183.272 32.856 182.866C32.2375 182.46 31.479 182.257 30.5804 182.257C29.9233 182.257 29.3484 182.364 28.8556 182.576C28.3676 182.789 27.9859 183.081 27.7105 183.453C27.44 183.825 27.3047 184.248 27.3047 184.721C27.3047 185.118 27.3989 185.458 27.5873 185.743C27.7806 186.023 28.027 186.258 28.3265 186.446C28.6261 186.63 28.9401 186.782 29.2686 186.903C29.5972 187.019 29.8991 187.113 30.1745 187.185L31.6819 187.591C32.0684 187.693 32.4984 187.833 32.9719 188.012C33.4502 188.19 33.9068 188.434 34.3416 188.743C34.7813 189.048 35.1436 189.439 35.4287 189.918C35.7137 190.396 35.8563 190.983 35.8563 191.679C35.8563 192.481 35.6461 193.205 35.2258 193.853C34.8103 194.5 34.2015 195.015 33.3995 195.396C32.6023 195.778 31.6336 195.969 30.4934 195.969C29.4305 195.969 28.5101 195.797 27.7323 195.454C26.9592 195.111 26.3505 194.633 25.906 194.019C25.4663 193.406 25.2175 192.693 25.1595 191.881H27.0148C27.0631 192.442 27.2515 192.906 27.5801 193.273C27.9134 193.635 28.3338 193.906 28.8411 194.085C29.3532 194.259 29.904 194.345 30.4934 194.345C31.1795 194.345 31.7955 194.234 32.3414 194.012C32.8874 193.785 33.3198 193.471 33.6386 193.07C33.9575 192.664 34.117 192.191 34.117 191.65C34.117 191.157 33.9793 190.756 33.7039 190.447C33.4285 190.137 33.0661 189.886 32.6168 189.693C32.1675 189.5 31.6819 189.33 31.1601 189.186L29.3339 188.664C28.1743 188.33 27.2564 187.855 26.58 187.236C25.9036 186.618 25.5654 185.808 25.5654 184.808C25.5654 183.977 25.79 183.253 26.2394 182.634C26.6935 182.011 27.3023 181.528 28.0656 181.185C28.8338 180.837 29.6914 180.663 30.6383 180.663C31.595 180.663 32.4453 180.834 33.1893 181.178C33.9334 181.516 34.5228 181.98 34.9576 182.569C35.3973 183.158 35.6292 183.828 35.6533 184.576H33.914ZM43.1016 195.94C42.0966 195.94 41.2149 195.701 40.4564 195.222C39.7027 194.744 39.1132 194.075 38.6881 193.215C38.2677 192.355 38.0576 191.35 38.0576 190.2C38.0576 189.041 38.2677 188.028 38.6881 187.164C39.1132 186.299 39.7027 185.627 40.4564 185.149C41.2149 184.671 42.0966 184.431 43.1016 184.431C44.1065 184.431 44.9858 184.671 45.7395 185.149C46.498 185.627 47.0875 186.299 47.5078 187.164C47.933 188.028 48.1455 189.041 48.1455 190.2C48.1455 191.35 47.933 192.355 47.5078 193.215C47.0875 194.075 46.498 194.744 45.7395 195.222C44.9858 195.701 44.1065 195.94 43.1016 195.94ZM43.1016 194.403C43.8649 194.403 44.493 194.208 44.9858 193.816C45.4786 193.425 45.8434 192.911 46.0801 192.273C46.3168 191.635 46.4352 190.944 46.4352 190.2C46.4352 189.456 46.3168 188.763 46.0801 188.12C45.8434 187.478 45.4786 186.958 44.9858 186.562C44.493 186.166 43.8649 185.968 43.1016 185.968C42.3382 185.968 41.7101 186.166 41.2173 186.562C40.7245 186.958 40.3597 187.478 40.123 188.12C39.8863 188.763 39.7679 189.456 39.7679 190.2C39.7679 190.944 39.8863 191.635 40.123 192.273C40.3597 192.911 40.7245 193.425 41.2173 193.816C41.7101 194.208 42.3382 194.403 43.1016 194.403ZM55.2785 195.94C54.2349 195.94 53.3363 195.693 52.5826 195.201C51.8289 194.708 51.2491 194.029 50.8433 193.164C50.4374 192.299 50.2345 191.311 50.2345 190.2C50.2345 189.07 50.4423 188.072 50.8578 187.207C51.2781 186.337 51.8627 185.659 52.6116 185.171C53.3653 184.678 54.2446 184.431 55.2495 184.431C56.0322 184.431 56.7376 184.576 57.3657 184.866C57.9937 185.156 58.5083 185.562 58.9093 186.084C59.3103 186.606 59.5591 187.214 59.6557 187.91H57.9454C57.815 187.403 57.5251 186.953 57.0758 186.562C56.6313 186.166 56.0322 185.968 55.2785 185.968C54.6118 185.968 54.0272 186.142 53.5247 186.49C53.0271 186.833 52.6381 187.318 52.3579 187.946C52.0825 188.57 51.9448 189.302 51.9448 190.142C51.9448 191.002 52.0801 191.751 52.3507 192.389C52.6261 193.027 53.0126 193.522 53.5102 193.874C54.0127 194.227 54.6021 194.403 55.2785 194.403C55.723 194.403 56.1264 194.326 56.4888 194.172C56.8511 194.017 57.1579 193.795 57.4091 193.505C57.6604 193.215 57.8391 192.867 57.9454 192.461H59.6557C59.5591 193.118 59.32 193.71 58.9383 194.237C58.5614 194.759 58.0614 195.174 57.4381 195.483C56.8197 195.788 56.0998 195.94 55.2785 195.94ZM62.156 195.708V184.576H63.8663V195.708H62.156ZM63.0256 182.721C62.6923 182.721 62.4048 182.608 62.1632 182.381C61.9265 182.153 61.8081 181.88 61.8081 181.562C61.8081 181.243 61.9265 180.97 62.1632 180.743C62.4048 180.516 62.6923 180.402 63.0256 180.402C63.359 180.402 63.6441 180.516 63.8808 180.743C64.1224 180.97 64.2432 181.243 64.2432 181.562C64.2432 181.88 64.1224 182.153 63.8808 182.381C63.6441 182.608 63.359 182.721 63.0256 182.721ZM70.2746 195.969C69.5692 195.969 68.929 195.836 68.3541 195.57C67.7791 195.3 67.3226 194.911 66.9844 194.403C66.6462 193.891 66.4771 193.273 66.4771 192.548C66.4771 191.91 66.6027 191.394 66.8539 190.997C67.1052 190.596 67.4409 190.282 67.8613 190.055C68.2816 189.828 68.7454 189.659 69.2527 189.548C69.7649 189.432 70.2794 189.34 70.7964 189.273C71.4728 189.186 72.0211 189.12 72.4414 189.077C72.8666 189.029 73.1758 188.949 73.3691 188.838C73.5672 188.727 73.6662 188.533 73.6662 188.258V188.2C73.6662 187.485 73.4705 186.929 73.0792 186.533C72.6927 186.137 72.1057 185.939 71.3181 185.939C70.5016 185.939 69.8615 186.118 69.3977 186.475C68.9338 186.833 68.6077 187.214 68.4193 187.62L66.796 187.04C67.0858 186.364 67.4723 185.837 67.9555 185.461C68.4435 185.079 68.9749 184.813 69.5499 184.663C70.1296 184.509 70.6997 184.431 71.2602 184.431C71.6177 184.431 72.0284 184.475 72.4922 184.562C72.9608 184.644 73.4126 184.816 73.8474 185.076C74.287 185.337 74.6518 185.731 74.9417 186.258C75.2316 186.784 75.3765 187.49 75.3765 188.374V195.708H73.6662V194.201H73.5792C73.4633 194.442 73.27 194.701 72.9995 194.976C72.7289 195.251 72.369 195.486 71.9197 195.679C71.4703 195.872 70.922 195.969 70.2746 195.969ZM70.5355 194.432C71.2119 194.432 71.782 194.3 72.2458 194.034C72.7144 193.768 73.0671 193.425 73.3039 193.005C73.5454 192.584 73.6662 192.142 73.6662 191.679V190.113C73.5937 190.2 73.4343 190.28 73.1879 190.352C72.9463 190.42 72.6661 190.48 72.3472 190.534C72.0332 190.582 71.7264 190.625 71.4269 190.664C71.1321 190.698 70.893 190.727 70.7094 190.751C70.2649 190.809 69.8494 190.903 69.4629 191.034C69.0812 191.159 68.772 191.35 68.5353 191.606C68.3034 191.857 68.1874 192.2 68.1874 192.635C68.1874 193.229 68.4072 193.679 68.8469 193.983C69.2914 194.283 69.8542 194.432 70.5355 194.432ZM80.2085 180.866V195.708H78.4982V180.866H80.2085ZM89.3127 195.708V180.866H94.5016C95.5355 180.866 96.3883 181.045 97.0599 181.402C97.7314 181.755 98.2315 182.231 98.56 182.83C98.8885 183.424 99.0528 184.084 99.0528 184.808C99.0528 185.446 98.9393 185.973 98.7122 186.388C98.4899 186.804 98.1952 187.132 97.828 187.374C97.4657 187.615 97.0719 187.794 96.6468 187.91V188.055C97.1009 188.084 97.5575 188.243 98.0165 188.533C98.4755 188.823 98.8596 189.239 99.1688 189.78C99.478 190.321 99.6326 190.983 99.6326 191.766C99.6326 192.51 99.4635 193.179 99.1253 193.773C98.7871 194.367 98.2532 194.838 97.5237 195.186C96.7941 195.534 95.8448 195.708 94.6756 195.708H89.3127ZM91.11 194.114H94.6756C95.8496 194.114 96.683 193.887 97.1758 193.432C97.6734 192.973 97.9223 192.418 97.9223 191.766C97.9223 191.263 97.7942 190.799 97.5382 190.374C97.2821 189.944 96.9173 189.601 96.4438 189.345C95.9704 189.084 95.4099 188.954 94.7625 188.954H91.11V194.114ZM91.11 187.388H94.4436C94.9848 187.388 95.4727 187.282 95.9076 187.069C96.3472 186.857 96.6951 186.557 96.9511 186.171C97.212 185.784 97.3425 185.33 97.3425 184.808C97.3425 184.156 97.1154 183.603 96.6613 183.149C96.2071 182.69 95.4872 182.46 94.5016 182.46H91.11V187.388ZM109.369 191.157V184.576H111.079V195.708H109.369V193.824H109.253C108.992 194.389 108.586 194.87 108.036 195.266C107.485 195.657 106.789 195.853 105.948 195.853C105.253 195.853 104.634 195.701 104.093 195.396C103.552 195.087 103.127 194.623 102.818 194.005C102.508 193.382 102.354 192.597 102.354 191.65V184.576H104.064V191.534C104.064 192.345 104.291 192.993 104.745 193.476C105.204 193.959 105.789 194.201 106.499 194.201C106.924 194.201 107.357 194.092 107.796 193.874C108.241 193.657 108.613 193.324 108.912 192.874C109.217 192.425 109.369 191.852 109.369 191.157ZM119.053 184.576V186.026H113.284V184.576H119.053ZM114.966 181.909H116.676V192.519C116.676 193.002 116.746 193.365 116.886 193.606C117.031 193.843 117.215 194.002 117.437 194.085C117.664 194.162 117.903 194.201 118.154 194.201C118.343 194.201 118.497 194.191 118.618 194.172C118.739 194.147 118.836 194.128 118.908 194.114L119.256 195.65C119.14 195.693 118.978 195.737 118.77 195.78C118.563 195.829 118.299 195.853 117.98 195.853C117.497 195.853 117.024 195.749 116.56 195.541C116.101 195.334 115.719 195.017 115.415 194.592C115.115 194.167 114.966 193.63 114.966 192.983V181.909ZM126.467 184.576V186.026H120.698V184.576H126.467ZM122.379 181.909H124.09V192.519C124.09 193.002 124.16 193.365 124.3 193.606C124.445 193.843 124.628 194.002 124.851 194.085C125.078 194.162 125.317 194.201 125.568 194.201C125.757 194.201 125.911 194.191 126.032 194.172C126.153 194.147 126.249 194.128 126.322 194.114L126.67 195.65C126.554 195.693 126.392 195.737 126.184 195.78C125.976 195.829 125.713 195.853 125.394 195.853C124.911 195.853 124.438 195.749 123.974 195.541C123.515 195.334 123.133 195.017 122.829 194.592C122.529 194.167 122.379 193.63 122.379 192.983V181.909ZM133.442 195.94C132.437 195.94 131.555 195.701 130.797 195.222C130.043 194.744 129.454 194.075 129.029 193.215C128.608 192.355 128.398 191.35 128.398 190.2C128.398 189.041 128.608 188.028 129.029 187.164C129.454 186.299 130.043 185.627 130.797 185.149C131.555 184.671 132.437 184.431 133.442 184.431C134.447 184.431 135.326 184.671 136.08 185.149C136.839 185.627 137.428 186.299 137.848 187.164C138.274 188.028 138.486 189.041 138.486 190.2C138.486 191.35 138.274 192.355 137.848 193.215C137.428 194.075 136.839 194.744 136.08 195.222C135.326 195.701 134.447 195.94 133.442 195.94ZM133.442 194.403C134.205 194.403 134.834 194.208 135.326 193.816C135.819 193.425 136.184 192.911 136.421 192.273C136.657 191.635 136.776 190.944 136.776 190.2C136.776 189.456 136.657 188.763 136.421 188.12C136.184 187.478 135.819 186.958 135.326 186.562C134.834 186.166 134.205 185.968 133.442 185.968C132.679 185.968 132.051 186.166 131.558 186.562C131.065 186.958 130.7 187.478 130.464 188.12C130.227 188.763 130.108 189.456 130.108 190.2C130.108 190.944 130.227 191.635 130.464 192.273C130.7 192.911 131.065 193.425 131.558 193.816C132.051 194.208 132.679 194.403 133.442 194.403ZM142.807 189.012V195.708H141.097V184.576H142.749V186.316H142.894C143.155 185.75 143.551 185.296 144.083 184.953C144.614 184.605 145.3 184.431 146.141 184.431C146.895 184.431 147.554 184.586 148.119 184.895C148.685 185.2 149.124 185.663 149.438 186.287C149.752 186.905 149.909 187.688 149.909 188.635V195.708H148.199V188.751C148.199 187.876 147.972 187.195 147.518 186.707C147.064 186.214 146.44 185.968 145.648 185.968C145.102 185.968 144.614 186.086 144.184 186.323C143.759 186.56 143.423 186.905 143.177 187.359C142.93 187.813 142.807 188.364 142.807 189.012ZM160.92 187.069L159.383 187.504C159.286 187.248 159.144 186.999 158.956 186.758C158.772 186.511 158.521 186.308 158.202 186.149C157.883 185.99 157.475 185.91 156.977 185.91C156.296 185.91 155.728 186.067 155.274 186.381C154.825 186.69 154.6 187.084 154.6 187.562C154.6 187.987 154.755 188.323 155.064 188.57C155.373 188.816 155.856 189.021 156.513 189.186L158.166 189.591C159.161 189.833 159.902 190.203 160.39 190.7C160.878 191.193 161.122 191.828 161.122 192.606C161.122 193.244 160.939 193.814 160.572 194.317C160.209 194.819 159.702 195.215 159.05 195.505C158.398 195.795 157.639 195.94 156.774 195.94C155.639 195.94 154.699 195.693 153.955 195.201C153.211 194.708 152.74 193.988 152.542 193.041L154.165 192.635C154.32 193.234 154.612 193.684 155.042 193.983C155.477 194.283 156.045 194.432 156.745 194.432C157.542 194.432 158.175 194.263 158.644 193.925C159.117 193.582 159.354 193.171 159.354 192.693C159.354 192.307 159.219 191.983 158.948 191.722C158.678 191.456 158.262 191.258 157.702 191.128L155.847 190.693C154.827 190.451 154.078 190.077 153.6 189.57C153.126 189.058 152.89 188.417 152.89 187.649C152.89 187.021 153.066 186.465 153.419 185.982C153.776 185.499 154.262 185.12 154.875 184.845C155.494 184.569 156.194 184.431 156.977 184.431C158.079 184.431 158.943 184.673 159.572 185.156C160.204 185.639 160.654 186.277 160.92 187.069Z" fill="white"/>
<path d="M114.1 0.199994C99.7 -0.500006 80.5 3.29999 68.2 4.79999C59.9 5.79999 41.9 5.09999 29.8 9.59999C27 10.6 -0.0999737 28.5 16.6 59.7C30.8 86.4 -3.29997 113.2 2.20003 139.2C7.40003 163.8 33.1 157.3 44.4 150.7C56.5 143.5 61.2 136.2 87.5 134C116.1 131.6 179.9 122.4 190.9 112.7C201.8 103.1 201.9 87.4 181.9 78.6C161.9 69.8 141.6 55.6 151.3 38.1C161 20.6 164.6 9.99999 148.1 5.49999C131.6 0.999994 122.4 0.499994 114.1 0.199994Z" fill="#D3EEF8"/>
<path d="M162.8 152.3H26.9C23.8 152.3 21.3 149.8 21.3 146.7V10.9C21.3 7.79999 23.8 5.29999 26.9 5.29999H162.7C165.8 5.29999 168.3 7.79999 168.3 10.9V146.7C168.4 149.8 165.9 152.3 162.8 152.3Z" fill="#EFF5F7" stroke="#2561A3" stroke-width="2" stroke-miterlimit="10"/>
<path d="M163.9 9.29999L24.4 149.4C25.2 150.2 26.6 150.8 27.9 150.8H162.3C164.4 150.8 166.2 149.1 166.2 146.9V12.4C166.2 11.2 165 9.79999 163.9 9.29999Z" fill="#D2E7EF"/>
<path d="M165.1 43.5V13C165.1 9.9 164 8.5 161.3 8.5H28.2C25.6 8.5 22.1 10 22.1 13V43.5H165.1Z" fill="#F6C430"/>
<path d="M57.8 32C60.8928 32 63.4 29.4928 63.4 26.4C63.4 23.3072 60.8928 20.8 57.8 20.8C54.7072 20.8 52.2 23.3072 52.2 26.4C52.2 29.4928 54.7072 32 57.8 32Z" fill="#2561A3"/>
<path d="M76.6 32C79.6928 32 82.2 29.4928 82.2 26.4C82.2 23.3072 79.6928 20.8 76.6 20.8C73.5072 20.8 71 23.3072 71 26.4C71 29.4928 73.5072 32 76.6 32Z" fill="#2561A3"/>
<path d="M38.9 32C41.9928 32 44.5 29.4928 44.5 26.4C44.5 23.3072 41.9928 20.8 38.9 20.8C35.8072 20.8 33.3 23.3072 33.3 26.4C33.3 29.4928 35.8072 32 38.9 32Z" fill="#2561A3"/>
<path d="M163.4 9L129.3 43.5H165.2V13.7C165.1 11.4 165 9.8 163.4 9Z" fill="#EDA029"/>
<path d="M153.7 70.4H34C32.1 70.4 30.6 68.9 30.6 67V53.7C30.6 51.8 32.1 50.3 34 50.3H153.7C155.6 50.3 157.1 51.8 157.1 53.7V67C157.1 68.9 155.6 70.4 153.7 70.4Z" fill="#5A82C0" stroke="#2562A4" stroke-width="2" stroke-miterlimit="10"/>
<path d="M62.6 145.1H34.7C32.8 145.1 31.3 143.6 31.3 141.7V113.9C31.3 112 32.8 110.5 34.7 110.5H62.5C64.4 110.5 65.9 112 65.9 113.9V141.7C65.9 143.6 64.4 145.1 62.6 145.1Z" fill="#F5C42E" stroke="#2562A4" stroke-width="2" stroke-miterlimit="10"/>
<path d="M108.3 145.1H80.4C78.5 145.1 77 143.6 77 141.7V113.9C77 112 78.5 110.5 80.4 110.5H108.2C110.1 110.5 111.6 112 111.6 113.9V141.7C111.7 143.6 110.1 145.1 108.3 145.1Z" fill="#F5C42E" stroke="#2562A4" stroke-width="2" stroke-miterlimit="10"/>
<path d="M153.8 145.1H126C124.1 145.1 122.6 143.6 122.6 141.7V113.9C122.6 112 124.1 110.5 126 110.5H153.8C155.7 110.5 157.2 112 157.2 113.9V141.7C157.2 143.6 155.7 145.1 153.8 145.1Z" fill="#F5C42E" stroke="#2562A4" stroke-width="2" stroke-miterlimit="10"/>
<path d="M114 82.3H31.1C30.9 82.3 30.7 82.1 30.7 81.9V81.4C30.7 81.2 30.9 81 31.1 81H114C114.2 81 114.4 81.2 114.4 81.4V81.9C114.4 82.1 114.2 82.3 114 82.3Z" fill="#5A82C0" stroke="#2562A4" stroke-width="2" stroke-miterlimit="10"/>
<path d="M137.8 90.6H31.1C30.9 90.6 30.7 90.4 30.7 90.2V89.7C30.7 89.5 30.9 89.3 31.1 89.3H137.8C138 89.3 138.2 89.5 138.2 89.7V90.2C138.3 90.4 138.1 90.6 137.8 90.6Z" fill="#5A82C0" stroke="#2562A4" stroke-width="2" stroke-miterlimit="10"/>
<path d="M118.4 98.8H31.1C30.9 98.8 30.7 98.6 30.7 98.4V97.9C30.7 97.7 30.9 97.5 31.1 97.5H118.4C118.6 97.5 118.8 97.7 118.8 97.9V98.4C118.9 98.6 118.7 98.8 118.4 98.8Z" fill="#5A82C0" stroke="#2562A4" stroke-width="2" stroke-miterlimit="10"/>
<path d="M95.3 164C129.376 164 157 162.881 157 161.5C157 160.119 129.376 159 95.3 159C61.224 159 33.6 160.119 33.6 161.5C33.6 162.881 61.224 164 95.3 164Z" fill="#2262A4"/>
<path d="M46 128.5C45.1 128.5 44.2 128.5 43.3 128.5C43.3 127.2 43.3 126 43.3 124.7C44.2 124.7 45.1 124.7 46 124.7C46 124.6 46 124.5 46 124.5C46 123.5 46 122.6 46 121.6C46 120.9 46.1 120.2 46.4 119.6C46.9 118.3 47.9 117.5 49.1 117.1C49.8 116.9 50.4 116.8 51.1 116.8C52 116.8 53 116.8 53.9 116.9C53.9 116.9 53.9 116.9 54 116.9C54 118.1 53.9 119.2 53.9 120.4C53.8 120.4 53.8 120.4 53.7 120.4C53 120.4 52.2 120.4 51.5 120.4C51.3 120.4 51.1 120.4 50.9 120.5C50.4 120.6 50.2 120.9 50.1 121.3C50.1 121.5 50 121.7 50 121.9C50 122.8 50 123.6 50 124.5C50 124.5 50 124.6 50 124.7C51.3 124.7 52.7 124.7 54 124.7C54 126 53.9 127.2 53.8 128.5C52.5 128.5 51.2 128.5 49.9 128.5C49.9 131.9 49.9 135.4 49.9 138.8C48.6 138.8 47.2 138.8 45.9 138.8C46 135.4 46 132 46 128.5Z" fill="#D28429"/>
<path d="M84 118L92.0038 129.267L84.4208 138H87.3994L93.3367 131.145L98.2055 138H106L97.6283 126.194L104.724 118H101.792L96.2998 124.319L91.8187 118H84ZM88.3313 120.222H90.6423L101.671 135.778H99.3797L88.3313 120.222Z" fill="#D28429"/>
</g>
<path d="M142.304 126.043C142.957 125.174 143.826 124.739 144.696 124.522C146.435 124.304 148.391 124.304 149.696 125.826C150.565 126.696 150.783 128 150.783 129.304C150.783 131.913 150.783 134.522 151 136.913C151 137.565 150.783 137.783 150.13 138C149.261 138 148.391 138 147.522 138C146.87 138 146.652 137.783 146.652 136.913C146.652 134.739 146.652 132.783 146.652 130.609C146.652 130.174 146.652 129.739 146.435 129.304C146.217 128.435 145.565 128 144.913 128C144.043 128 143.391 128.217 142.957 128.87C142.739 129.522 142.522 129.957 142.522 130.609C142.522 132.565 142.522 134.522 142.522 136.478C142.522 137.348 142.304 137.565 141.435 137.565C140.783 137.565 139.913 137.565 139.261 137.565C138.609 137.565 138.391 137.348 138.391 136.696C138.391 132.783 138.391 129.087 138.391 125.174C138.391 124.522 138.609 124.304 139.478 124.304C140.13 124.304 141 124.304 141.652 124.304C142.522 124.304 142.739 124.522 142.739 125.391C142.304 125.609 142.304 125.826 142.304 126.043Z" fill="#C67B0C"/>
<path d="M136.217 131.261C136.217 133.217 136.217 134.957 136.217 136.913C136.217 137.783 136 138 135.13 138C134.261 138 133.609 138 132.739 138C132.087 138 131.87 137.783 131.87 137.13C131.87 133.217 131.87 129.522 131.87 125.609C131.87 124.957 132.087 124.739 132.739 124.739C133.609 124.739 134.478 124.739 135.13 124.739C135.783 124.739 136 124.957 136 125.826C136.217 127.348 136.217 129.304 136.217 131.261Z" fill="#C67B0C"/>
<path d="M136.652 120.826C136.652 122.348 135.348 123.652 133.826 123.652C132.304 123.652 131 122.348 131 120.826C131 119.304 132.304 118 133.826 118C135.565 118 136.652 119.304 136.652 120.826Z" fill="#C67B0C"/>
</g>
<defs>
<clipPath id="clip0_6_77">
<rect width="199" height="203" fill="white"/>
</clipPath>
</defs>
</svg>
