<svg xmlns="http://www.w3.org/2000/svg" xmlns:xlink="http://www.w3.org/1999/xlink" width="303" height="74.114" viewBox="0 0 303 74.114">
  <defs>
    <clipPath id="clip-path">
      <rect id="Rectangle_3" data-name="Rectangle 3" width="303" height="74.114" fill="none"/>
    </clipPath>
  </defs>
  <g id="Group_41" data-name="Group 41" transform="translate(0)">
    <path id="Path_1" data-name="Path 1" d="M23.784,118.526,16.258,131,8.773,118.526H0v29.066H6.486V127.914l9.772,14.8,9.772-14.8v19.678h6.487V118.526Z" transform="translate(0 -95.854)" fill="#323739"/>
    <g id="Group_2" data-name="Group 2" transform="translate(0)">
      <g id="Group_1" data-name="Group 1" clip-path="url(#clip-path)">
        <path id="Path_2" data-name="Path 2" d="M410.058,140.087a5.309,5.309,0,0,0,4.366,2.017,5.251,5.251,0,0,0,4.345-2.017,8.633,8.633,0,0,0,1.6-5.509V118.527h6.487v16.259q0,6.321-3.493,9.709a13.483,13.483,0,0,1-17.9-.021q-3.514-3.409-3.514-9.688V118.527h6.487v16.051a8.552,8.552,0,0,0,1.622,5.509" transform="translate(-325.062 -95.854)" fill="#323739"/>
        <path id="Path_3" data-name="Path 3" d="M612.075,128.173a9.013,9.013,0,0,1-5.856,8.666,1.022,1.022,0,0,1-.314.092l8,10.661H605.92l-6-8.664-4.935,1.737v6.927H588.5V118.526h11.019q6.777,0,9.668,2.287c1.926,1.525,2.832,3.979,2.89,7.36m-7.817,3.451a4.391,4.391,0,0,0,1.206-3.43,3.677,3.677,0,0,0-1.247-3.223,7.985,7.985,0,0,0-4.366-.873h-4.865v10.888s8.468-2.641,9.273-3.362" transform="translate(-475.926 -95.853)" fill="#323739"/>
        <rect id="Rectangle_1" data-name="Rectangle 1" width="6.487" height="29.066" transform="translate(147.714 22.673)" fill="#323739"/>
        <path id="Path_4" data-name="Path 4" d="M871.619,139.042a9.573,9.573,0,0,0,7.817-3.784l4.158,4.283a15.687,15.687,0,0,1-22.724,1.331,15.363,15.363,0,0,1,.083-21.5,14.917,14.917,0,0,1,10.832-4.325,15.355,15.355,0,0,1,11.975,5.447l-4.034,4.574a9.452,9.452,0,0,0-7.651-3.826,8.917,8.917,0,0,0-6.258,2.391,8.33,8.33,0,0,0-2.6,6.445,8.793,8.793,0,0,0,2.453,6.507,8.1,8.1,0,0,0,5.946,2.453" transform="translate(-692.682 -93.042)" fill="#323739"/>
        <path id="Path_5" data-name="Path 5" d="M1040.233,147.592v-4.449l15.219-19h-14.72v-5.614h23.577v4.491l-15.177,18.92h15.427v5.655Z" transform="translate(-841.249 -95.854)" fill="#323739"/>
        <path id="Path_6" data-name="Path 6" d="M225.719,118.527H219.44l-12.557,29.066h6.9l15.321-5.31,2.268,5.31h6.9ZM216.367,141.6l.121-.282,2.453-5.7,3.659-8.441,4.52,10.393Z" transform="translate(-167.309 -95.854)" fill="#323739"/>
        <path id="Path_7" data-name="Path 7" d="M1263.884,147.068V118.217h5.877v6.624h6.7v5.546h-6.7v16.682Z" transform="translate(-1022.118 -95.603)" fill="#323739"/>
        <path id="Path_8" data-name="Path 8" d="M1351.914,175.075l-7.6-22.227h6.363l2.879,9.815q.051.155.118.375a20.578,20.578,0,0,1,.687,3.1,17.307,17.307,0,0,1,.653-2.883q.117-.4.167-.594l2.88-9.815h6.212l-7.685,22.227Z" transform="translate(-1087.162 -123.61)" fill="#323739"/>
        <rect id="Rectangle_2" data-name="Rectangle 2" width="5.41" height="5.41" transform="translate(229.777 46.055)" fill="#323739"/>
        <path id="Path_9" data-name="Path 9" d="M1325.118,74.114l-61.234-11.126V56.875h1.687V61.58l54.137,6.232V6.3l-54.137,6.253v4.706h-1.687V11.149L1325.118,0Z" transform="translate(-1022.118)" fill="#323739"/>
      </g>
    </g>
  </g>
</svg>
