<svg width="49" height="49" viewBox="0 0 49 49" fill="none" xmlns="http://www.w3.org/2000/svg">
<path d="M37.5319 22.0604V15.6383L25.0213 3.12766H8.34044C7.23443 3.12766 6.17372 3.56702 5.39165 4.34909C4.60959 5.13116 4.17023 6.19187 4.17023 7.29788V40.6596C4.17023 42.9532 6.04682 44.8298 8.34044 44.8298H20.8511M40.5345 36.683L45.8724 32.9149V41.1064L40.5345 37.4202V36.6011V36.683ZM30.8596 31.2766H38.366C38.8084 31.2766 39.2327 31.4492 39.5455 31.7564C39.8583 32.0637 40.0341 32.4804 40.0341 32.9149V41.1064C40.0341 41.5409 39.8583 41.9576 39.5455 42.2648C39.2327 42.5721 38.8084 42.7447 38.366 42.7447H30.8596C30.4172 42.7447 29.9929 42.5721 29.6801 42.2648C29.3672 41.9576 29.1915 41.5409 29.1915 41.1064V32.9149C29.1915 32.0138 29.9421 31.2766 30.8596 31.2766ZM25.0213 5.21277V15.6383H35.4468L25.0213 5.21277Z" stroke="#37484F" stroke-opacity="0.5" stroke-width="2.5" stroke-linecap="round" stroke-linejoin="round"/>
</svg>
