<svg width="16" height="16" viewBox="0 0 16 16" fill="none" xmlns="http://www.w3.org/2000/svg">
<g clip-path="url(#clip0_302_332)">
<path d="M6.25 8.125C6.51841 8.48383 6.86085 8.78074 7.25409 8.99559C7.64734 9.21044 8.08219 9.3382 8.52916 9.37021C8.97612 9.40222 9.42474 9.33773 9.84459 9.18111C10.2644 9.0245 10.6457 8.77942 10.9625 8.4625L12.8375 6.5875C13.4067 5.99812 13.7217 5.20874 13.7146 4.38937C13.7075 3.57001 13.3788 2.78622 12.7994 2.20682C12.22 1.62742 11.4362 1.29876 10.6169 1.29164C9.79751 1.28452 9.00813 1.59951 8.41875 2.16875L7.34375 3.2375" stroke="#37484F" stroke-width="1.58333" stroke-linecap="round" stroke-linejoin="round"/>
<path d="M8.75 6.875C8.48159 6.51617 8.13915 6.21926 7.74591 6.00441C7.35266 5.78956 6.91781 5.6618 6.47085 5.62979C6.02388 5.59778 5.57526 5.66227 5.15541 5.81889C4.73556 5.9755 4.35431 6.22058 4.0375 6.5375L2.1625 8.4125C1.59326 9.00188 1.27828 9.79126 1.2854 10.6106C1.29252 11.43 1.62117 12.2138 2.20057 12.7932C2.77997 13.3726 3.56376 13.7012 4.38312 13.7084C5.20249 13.7155 5.99187 13.4005 6.58125 12.8312L7.65 11.7625" stroke="#37484F" stroke-width="1.58333" stroke-linecap="round" stroke-linejoin="round"/>
</g>
<defs>
<clipPath id="clip0_302_332">
<rect width="15" height="15" fill="white"/>
</clipPath>
</defs>
</svg>
