<svg width="15" height="15" viewBox="0 0 15 15" fill="none" xmlns="http://www.w3.org/2000/svg">
<path d="M13.125 7.1875C13.1272 8.01242 12.9344 8.82618 12.5625 9.5625C12.1215 10.4448 11.4436 11.187 10.6047 11.7058C9.76572 12.2246 8.7989 12.4996 7.8125 12.5C6.98758 12.5022 6.17382 12.3094 5.4375 11.9375L1.875 13.125L3.0625 9.5625C2.69058 8.82618 2.49785 8.01242 2.5 7.1875C2.50038 6.2011 2.77538 5.23428 3.2942 4.39535C3.81302 3.55641 4.55516 2.87848 5.4375 2.4375C6.17382 2.06558 6.98758 1.87285 7.8125 1.875H8.125C9.42772 1.94687 10.6582 2.49673 11.5807 3.41929C12.5033 4.34185 13.0531 5.57229 13.125 6.875V7.1875Z" stroke="#37484F" stroke-width="1.58333" stroke-linecap="round" stroke-linejoin="round"/>
</svg>
