<svg width="17" height="17" viewBox="0 0 17 17" fill="none" xmlns="http://www.w3.org/2000/svg">
<g clip-path="url(#clip0_98_377)">
<path d="M12.75 2.83333H4.24998C3.46758 2.83333 2.83331 3.4676 2.83331 4.25V12.75C2.83331 13.5324 3.46758 14.1667 4.24998 14.1667H12.75C13.5324 14.1667 14.1666 13.5324 14.1666 12.75V4.25C14.1666 3.4676 13.5324 2.83333 12.75 2.83333Z" stroke="#37484F" stroke-width="1.58333" stroke-linecap="round" stroke-linejoin="round"/>
<path d="M10.625 6.375H6.375V10.625H10.625V6.375Z" stroke="#37484F" stroke-width="1.58333" stroke-linecap="round" stroke-linejoin="round"/>
<path d="M6.375 0.708334V2.83333" stroke="#37484F" stroke-width="1.58333" stroke-linecap="round" stroke-linejoin="round"/>
<path d="M10.625 0.708334V2.83333" stroke="#37484F" stroke-width="1.58333" stroke-linecap="round" stroke-linejoin="round"/>
<path d="M6.375 14.1667V16.2917" stroke="#37484F" stroke-width="1.58333" stroke-linecap="round" stroke-linejoin="round"/>
<path d="M10.625 14.1667V16.2917" stroke="#37484F" stroke-width="1.58333" stroke-linecap="round" stroke-linejoin="round"/>
<path d="M14.1667 6.375H16.2917" stroke="#37484F" stroke-width="1.58333" stroke-linecap="round" stroke-linejoin="round"/>
<path d="M14.1667 9.91666H16.2917" stroke="#37484F" stroke-width="1.58333" stroke-linecap="round" stroke-linejoin="round"/>
<path d="M0.708313 6.375H2.83331" stroke="#37484F" stroke-width="1.58333" stroke-linecap="round" stroke-linejoin="round"/>
<path d="M0.708313 9.91666H2.83331" stroke="#37484F" stroke-width="1.58333" stroke-linecap="round" stroke-linejoin="round"/>
</g>
<defs>
<clipPath id="clip0_98_377">
<rect width="17" height="17" fill="white"/>
</clipPath>
</defs>
</svg>
