<svg width="17" height="17" viewBox="0 0 17 17" fill="none" xmlns="http://www.w3.org/2000/svg">
<path d="M7.08333 15.2292C7.47453 15.2292 7.79167 14.912 7.79167 14.5208C7.79167 14.1296 7.47453 13.8125 7.08333 13.8125C6.69213 13.8125 6.375 14.1296 6.375 14.5208C6.375 14.912 6.69213 15.2292 7.08333 15.2292Z" stroke="#37484F" stroke-width="1.58333" stroke-linecap="round" stroke-linejoin="round"/>
<path d="M12.75 15.2292C13.1412 15.2292 13.4584 14.912 13.4584 14.5208C13.4584 14.1296 13.1412 13.8125 12.75 13.8125C12.3588 13.8125 12.0417 14.1296 12.0417 14.5208C12.0417 14.912 12.3588 15.2292 12.75 15.2292Z" stroke="#37484F" stroke-width="1.58333" stroke-linecap="round" stroke-linejoin="round"/>
<path d="M1.77081 1.77084H3.89581L5.80831 10.5542C5.87454 10.879 6.05258 11.1703 6.31143 11.3774C6.57028 11.5844 6.89356 11.6942 7.22498 11.6875H12.6791C13.0106 11.6942 13.3338 11.5844 13.5927 11.3774C13.8515 11.1703 14.0296 10.879 14.0958 10.5542L15.2291 4.60417H5.02915" stroke="#37484F" stroke-width="1.58333" stroke-linecap="round" stroke-linejoin="round"/>
</svg>
