<svg xmlns="http://www.w3.org/2000/svg" width="24" height="24" style=""><rect id="backgroundrect" width="100%" height="100%" x="0" y="0" fill="none" stroke="none"/><!--! Font Awesome Pro 6.2.1 by @fontawesome - https://fontawesome.com License - https://fontawesome.com/license (Commercial License) Copyright 2022 Fonticons, Inc. --><g class="currentLayer" style=""><title>Layer 1</title><path d="M16.749309571816227,2.1773726400542595 C17.94322911713825,0.9827307946514315 19.880692863283613,0.9827307946514315 21.074612408605642,2.1773726400542595 L21.588720113174915,2.69233010942447 C22.78263965849695,3.887099419547437 22.78263965849695,5.82413828329233 21.588720113174915,7.018057828614362 L13.210039175897178,15.4009875898968 C12.840391487487873,15.766386454301408 12.385767318984456,16.03406236659781 11.884406086429303,16.17852238275777 L7.635582081724561,17.393686048103323 C7.278680865329362,17.495657824216234 6.896286704905947,17.393686048103323 6.632859616614243,17.096268367773995 C6.373681352327266,16.871080695524647 6.271709576214341,16.48868653510122 6.373681352327266,16.13178531870602 L7.588845017672815,11.882961314001284 C7.733305033832772,11.381600081446123 8.00098094612917,10.92697591294272 8.36637981053378,10.5573282245334 L16.749309571816227,2.1773726400542595 zM19.5960216549684,3.6194235072510406 C19.234871614568494,3.2213086980102092 18.589050365853367,3.2213086980102092 18.18966090941113,3.6194235072510406 L16.953253124042046,4.855406410219651 L18.911960990210932,6.814114276388535 L20.148368775580014,5.5394670749771135 C20.547758232022257,5.178317034577212 20.547758232022257,4.532495785862087 20.148368775580014,4.134380976621256 L19.5960216549684,3.6194235072510406 zM9.551801707846403,12.44380608262231 L8.837999275056005,14.929368125374578 L11.323561317808275,14.215565692584182 C11.493514277996468,14.168828628532427 11.64222311816113,14.079603324433632 11.765439014297568,13.956387428297193 L17.47160965261603,8.254465613983438 L15.512901786447147,6.295757747814555 L9.81097997213339,12.001928386133017 C9.687764075996954,12.125144282269456 9.598538771898154,12.273853122434119 9.551801707846403,12.44380608262231 zM9.394595219672324,3.835688649090515 C9.95968881229806,3.835688649090515 10.414312980801462,4.292437229596275 10.414312980801462,4.855406410219651 C10.414312980801462,5.420500002845385 9.95968881229806,5.875124171348787 9.394595219672324,5.875124171348787 H4.63591233440302 C3.697347111763744,5.875124171348787 2.9363827325211282,6.635663668190935 2.9363827325211282,7.574653773230682 V19.131455066027563 C2.9363827325211282,20.070445171067313 3.697347111763744,20.83098466790946 4.63591233440302,20.83098466790946 H16.192713627199904 C17.131703732239654,20.83098466790946 17.892243229081796,20.070445171067313 17.892243229081796,19.131455066027563 V14.372772180758256 C17.892243229081796,13.807678588132521 18.346867397585207,13.353054419629123 18.911960990210932,13.353054419629123 C19.477054582836665,13.353054419629123 19.931678751340073,13.807678588132521 19.931678751340073,14.372772180758256 V19.131455066027563 C19.931678751340073,21.196383532314066 18.257642093486403,22.870420190167728 16.192713627199904,22.870420190167728 H4.63591233440302 C2.5709838681165227,22.870420190167728 0.8969472102628557,21.196383532314066 0.8969472102628557,19.131455066027563 V7.574653773230682 C0.8969472102628557,5.509725306944187 2.5709838681165227,3.835688649090515 4.63591233440302,3.835688649090515 H9.394595219672324 z" class="selected" id="svg_2" stroke="none" fill-opacity="1" fill="#b8b7b7"/></g></svg>