<svg width="17" height="17" viewBox="0 0 17 17" fill="none" xmlns="http://www.w3.org/2000/svg">
<path d="M11.3333 7.08333C11.3333 7.83478 11.0348 8.55545 10.5035 9.0868C9.97212 9.61816 9.25145 9.91667 8.5 9.91667C7.74855 9.91667 7.02788 9.61816 6.49653 9.0868C5.96518 8.55545 5.66667 7.83478 5.66667 7.08333M4.25 1.41667L2.125 4.25V14.1667C2.125 14.9458 2.7625 15.5833 3.54167 15.5833H13.4583C13.8341 15.5833 14.1944 15.4341 14.4601 15.1684C14.7257 14.9027 14.875 14.5424 14.875 14.1667V4.25L12.75 1.41667H4.25ZM2.69167 4.25H14.3083H2.69167Z" stroke="#37484F" stroke-width="1.58333" stroke-linecap="round" stroke-linejoin="round"/>
</svg>
