<svg width="15" height="15" viewBox="0 0 15 15" fill="none" xmlns="http://www.w3.org/2000/svg">
<path fill-rule="evenodd" clip-rule="evenodd" d="M7.5 1.875C4.3934 1.875 1.875 4.3934 1.875 7.5C1.875 10.6066 4.3934 13.125 7.5 13.125C10.6066 13.125 13.125 10.6066 13.125 7.5C13.125 4.3934 10.6066 1.875 7.5 1.875ZM0.625 7.5C0.625 3.70304 3.70304 0.625 7.5 0.625C11.297 0.625 14.375 3.70304 14.375 7.5C14.375 11.297 11.297 14.375 7.5 14.375C3.70304 14.375 0.625 11.297 0.625 7.5Z" fill="#37484F"/>
<path fill-rule="evenodd" clip-rule="evenodd" d="M7.66132 5.0152C7.37037 4.96529 7.07115 5.01997 6.81664 5.16954C6.56214 5.31911 6.36879 5.55393 6.27083 5.8324C6.15629 6.15802 5.79946 6.32913 5.47384 6.21458C5.14823 6.10004 4.97712 5.74321 5.09166 5.4176C5.28758 4.86065 5.67429 4.39102 6.18329 4.09187C6.69229 3.79273 7.29074 3.68338 7.87264 3.78319C8.45454 3.883 8.98234 4.18553 9.36256 4.6372C9.74267 5.08874 9.95076 5.6602 9.95 6.25042C9.94979 7.20698 9.24061 7.83866 8.73418 8.17628C8.46191 8.35779 8.19409 8.49126 7.9968 8.57894C7.89727 8.62318 7.81345 8.65675 7.75306 8.67976C7.72281 8.69128 7.69829 8.70021 7.68043 8.70656L7.65873 8.71416L7.65181 8.71652L7.64938 8.71734L7.64842 8.71766C7.64823 8.71773 7.64764 8.71793 7.45 8.125L7.64764 8.71793C7.32017 8.82708 6.96622 8.6501 6.85707 8.32264C6.74806 7.99561 6.92442 7.64216 7.25105 7.53251C7.25123 7.53245 7.25155 7.53234 7.25202 7.53217L7.26167 7.52879C7.27129 7.52537 7.28705 7.51965 7.30807 7.51165C7.35021 7.49559 7.41288 7.47057 7.48913 7.43668C7.6434 7.36811 7.84433 7.2672 8.04081 7.13622C8.47181 6.84888 8.7 6.54321 8.7 6.25L8.7 6.24907C8.70044 5.95387 8.59639 5.66804 8.40628 5.4422C8.21617 5.21637 7.95227 5.0651 7.66132 5.0152ZM7.25202 7.53217C7.25219 7.53212 7.25185 7.53223 7.25202 7.53217V7.53217Z" fill="#37484F"/>
<path fill-rule="evenodd" clip-rule="evenodd" d="M6.875 10.625C6.875 10.2798 7.15482 10 7.5 10H7.50625C7.85143 10 8.13125 10.2798 8.13125 10.625C8.13125 10.9702 7.85143 11.25 7.50625 11.25H7.5C7.15482 11.25 6.875 10.9702 6.875 10.625Z" fill="#37484F"/>
</svg>
