<?xml version="1.0" encoding="UTF-8" standalone="no"?>
<!-- Created with Inkscape (http://www.inkscape.org/) -->

<svg
	xmlns:dc="http://purl.org/dc/elements/1.1/"
	xmlns:cc="http://creativecommons.org/ns#"
	xmlns:rdf="http://www.w3.org/1999/02/22-rdf-syntax-ns#"
	xmlns:svg="http://www.w3.org/2000/svg"
	xmlns="http://www.w3.org/2000/svg"
	version="1.1"
	width="26"
	height="35.176441"
	viewBox="0 0 26 35.176441"
	id="Capa_1"
	xml:space="preserve"><metadata
	id="metadata41"><rdf:RDF><cc:Work
	rdf:about=""><dc:format>image/svg+xml</dc:format><dc:type
	rdf:resource="http://purl.org/dc/dcmitype/StillImage" /><dc:title></dc:title></cc:Work></rdf:RDF></metadata><defs
	id="defs39" />
<style>
	/* <![CDATA[ */
	.fill {
		fill: #81c0c2 /* links_color */;
		fill-opacity: 1;
	}
	/* ]]> */
</style>
<g
	transform="matrix(0.07475045,0,0,0.07475045,-4.5882575,0)"
	id="g3070"
	class="fill">
<g
	id="g3030"
	class="fill">
	<path
	d="M 327.081,0 H 90.234 C 74.331,0 61.381,12.959 61.381,28.859 v 412.863 c 0,15.924 12.95,28.863 28.853,28.863 H 380.35 c 15.917,0 28.855,-12.939 28.855,-28.863 V 89.234 L 327.081,0 z m 6.81,43.184 35.996,39.121 H 333.891 V 43.184 z m 51.081,398.539 c 0,2.542 -2.081,4.629 -4.635,4.629 H 90.234 c -2.55,0 -4.619,-2.087 -4.619,-4.629 V 28.859 c 0,-2.548 2.069,-4.613 4.619,-4.613 h 219.411 v 70.181 c 0,6.682 5.443,12.099 12.129,12.099 h 63.198 V 441.723 z M 128.364,128.89 H 334.15 c 5.013,0 9.079,4.066 9.079,9.079 0,5.013 -4.066,9.079 -9.079,9.079 H 128.364 c -5.012,0 -9.079,-4.066 -9.079,-9.079 0,-5.012 4.067,-9.079 9.079,-9.079 z m 214.865,70.09 c 0,5.012 -4.066,9.079 -9.079,9.079 H 128.364 c -5.012,0 -9.079,-4.066 -9.079,-9.079 0,-5.013 4.067,-9.079 9.079,-9.079 H 334.15 c 5.013,0 9.079,4.067 9.079,9.079 z m 0,59.013 c 0,5.013 -4.066,9.079 -9.079,9.079 H 128.364 c -5.012,0 -9.079,-4.066 -9.079,-9.079 0,-5.013 4.067,-9.079 9.079,-9.079 H 334.15 c 5.013,0 9.079,4.066 9.079,9.079 z m 0,60.018 c 0,5.013 -4.066,9.079 -9.079,9.079 H 128.364 c -5.012,0 -9.079,-4.066 -9.079,-9.079 0,-5.013 4.067,-9.079 9.079,-9.079 H 334.15 c 5.013,0 9.079,4.066 9.079,9.079 z"
	id="path3032"
	class="fill" />
</g>
</g>
</svg>