<?xml version="1.0" encoding="utf-8"?>
<!-- Generator: Adobe Illustrator 16.0.0, SVG Export Plug-In . SVG Version: 6.00 Build 0)  -->
<!DOCTYPE svg PUBLIC "-//W3C//DTD SVG 1.1//EN" "http://www.w3.org/Graphics/SVG/1.1/DTD/svg11.dtd">
<svg version="1.1" id="Layer_1" xmlns="http://www.w3.org/2000/svg" xmlns:xlink="http://www.w3.org/1999/xlink" x="0px" y="0px"
	 width="432.252px" height="595.279px" viewBox="33.05 103.23 432.252 595.279"
	 enable-background="new 33.05 103.23 432.252 595.279" xml:space="preserve">
<style>
	/* <![CDATA[ */
	.fill {
		fill: #e0e4ec /* thumb_bg_color */;
		fill-opacity: 1;
	}
	/* ]]> */
</style>
<g>
	<g>
		<g>
			<path class="fill" d="M249.177,424.906c-32.573-0.001-59.075,26.502-59.075,59.077c0,16.153,6.715,31.773,18.438,42.891v53.337
				c0,22.407,18.23,40.638,40.638,40.638s40.64-18.23,40.639-40.639v-53.337c11.717-11.108,18.437-26.731,18.437-42.89
				C308.251,451.407,281.751,424.907,249.177,424.906z M270.081,506.161c-5.641,5.313-8.875,12.741-8.874,20.38l-0.001,53.669
				c0,6.635-5.395,12.029-12.025,12.029c-6.635,0-12.029-5.396-12.029-12.029v-53.669c0-7.639-3.234-15.067-8.871-20.38
				c-6.166-5.814-9.563-13.691-9.563-22.179c0-16.798,13.667-30.465,30.465-30.466c16.797,0,30.463,13.669,30.463,30.467
				C279.64,492.469,276.243,500.346,270.081,506.161z"/>
		</g>
	</g>
	<g>
		<g>
			<path class="fill" d="M422.387,347.245h-274.9l0.001-113.713c-0.001-56.072,45.616-101.692,101.688-101.691
				c56.071,0,101.688,45.62,101.688,101.692v51.467c0,7.9,6.407,14.306,14.307,14.306c7.897,0,14.306-6.404,14.305-14.305
				l0.001-51.468c-0.001-71.85-58.452-130.302-130.301-130.302c-71.849,0-130.3,58.453-130.3,130.302v113.711l-42.91,0.001
				c-23.664-0.001-42.916,19.253-42.916,42.915v265.437c0,23.663,19.252,42.913,42.916,42.913l346.422,0.001
				c23.664-0.001,42.914-19.251,42.914-42.914V390.161C465.303,366.497,446.052,347.245,422.387,347.245z M436.692,655.594
				c0,7.889-6.416,14.309-14.305,14.309l-346.42-0.002c-7.889,0-14.307-6.418-14.307-14.307V390.161
				c0-7.888,6.418-14.306,14.307-14.306h346.421c7.888,0,14.306,6.417,14.306,14.306L436.692,655.594L436.692,655.594z"/>
		</g>
	</g>
</g>
</svg>
