<?xml version="1.0" encoding="UTF-8" standalone="no"?>
<!DOCTYPE svg PUBLIC "-//W3C//DTD SVG 20010904//EN"
              "http://www.w3.org/TR/2001/REC-SVG-20010904/DTD/svg10.dtd">

<svg xmlns="http://www.w3.org/2000/svg"
     width="6.94444in" height="1.34722in"
     viewBox="0 0 500 97">
    <style>
    /* <![CDATA[ */
    #text, #square-brackets {
        stroke: none;
        stroke-width: 0;
    }
    #text { fill: #1D1E23 /* text_color */; }
    #square-brackets { fill: #92cdcf /* primary_color */; }
    /* ]]> */
    </style>
    <path id="text"
          d="M 331.00,10.00
           C 331.00,10.00 331.00,84.00 331.00,84.00
             331.00,84.00 315.00,84.00 315.00,84.00
             315.00,84.00 315.00,78.00 315.00,78.00
             312.46,80.26 310.34,82.30 307.00,83.35
             304.67,84.08 301.46,84.03 299.00,84.00
             273.12,83.69 270.65,41.09 290.00,31.92
             293.97,30.03 297.69,29.90 302.00,30.02
             308.41,30.19 310.34,31.84 315.00,36.00
             315.00,36.00 315.00,10.00 315.00,10.00
             315.00,10.00 331.00,10.00 331.00,10.00 Z
           M 73.00,13.00
           C 80.37,13.14 79.70,14.30 82.63,26.00
             82.63,26.00 88.35,50.00 88.35,50.00
             88.35,50.00 91.00,62.00 91.00,62.00
             91.00,62.00 100.14,27.00 100.14,27.00
             100.14,27.00 104.56,15.02 104.56,15.02
             104.56,15.02 117.00,14.00 117.00,14.00
             117.00,14.00 130.00,63.00 130.00,63.00
             130.26,51.22 138.34,26.21 141.00,13.00
             141.00,13.00 158.00,13.00 158.00,13.00
             158.00,13.00 153.37,33.00 153.37,33.00
             153.37,33.00 140.00,84.00 140.00,84.00
             140.00,84.00 121.00,84.00 121.00,84.00
             121.00,84.00 110.00,44.00 110.00,44.00
             110.00,44.00 99.00,84.00 99.00,84.00
             99.00,84.00 80.00,84.00 80.00,84.00
             80.00,84.00 66.63,33.00 66.63,33.00
             66.63,33.00 62.00,13.00 62.00,13.00
             62.00,13.00 73.00,13.00 73.00,13.00 Z
           M 207.98,18.39
           C 219.41,27.60 219.31,48.12 206.96,56.45
             198.66,62.05 192.38,61.00 183.00,61.00
             183.00,61.00 183.00,84.00 183.00,84.00
             183.00,84.00 166.00,84.00 166.00,84.00
             166.00,84.00 166.00,13.00 166.00,13.00
             178.16,13.00 198.37,10.63 207.98,18.39 Z
           M 267.00,13.00
           C 267.00,13.00 267.00,84.00 267.00,84.00
             267.00,84.00 250.00,84.00 250.00,84.00
             250.00,84.00 250.00,13.00 250.00,13.00
             250.00,13.00 267.00,13.00 267.00,13.00 Z
           M 194.89,45.30
           C 200.21,41.34 200.44,32.60 194.89,28.74
             191.70,26.52 186.76,27.00 183.00,27.00
             183.00,27.00 183.00,48.00 183.00,48.00
             187.20,47.96 191.35,47.94 194.89,45.30 Z
           M 418.00,29.09
           C 424.86,29.48 432.19,31.00 436.30,37.02
             438.93,40.86 438.98,44.55 439.00,49.00
             439.00,49.00 439.00,84.00 439.00,84.00
             439.00,84.00 424.00,84.00 424.00,84.00
             424.00,84.00 423.00,79.00 423.00,79.00
             418.93,85.65 406.98,85.47 401.04,81.30
             393.66,76.12 392.71,63.44 399.13,57.21
             401.40,55.01 403.99,53.76 407.00,52.93
             411.69,51.64 418.05,52.00 423.00,52.00
             421.80,37.19 407.29,44.66 399.00,47.00
             399.00,47.00 399.00,32.00 399.00,32.00
             405.01,30.65 411.79,28.74 418.00,29.09 Z
           M 384.00,74.00
           C 383.98,76.40 384.22,79.43 382.40,81.28
             378.52,85.22 362.07,84.37 357.00,82.78
             343.99,78.71 339.21,66.69 340.09,54.00
             340.52,47.73 342.80,40.85 347.33,36.33
             355.32,28.34 372.55,27.39 380.90,35.21
             388.87,42.69 387.79,53.29 387.00,63.00
             387.00,63.00 357.00,63.00 357.00,63.00
             364.32,74.92 373.44,71.91 384.00,67.00
             384.00,67.00 384.00,74.00 384.00,74.00 Z
           M 369.70,44.43
           C 363.71,38.91 357.33,45.75 356.00,52.00
             356.00,52.00 373.00,52.00 373.00,52.00
             372.41,49.25 371.88,46.44 369.70,44.43 Z
           M 306.00,70.35
           C 318.01,68.20 319.59,43.44 303.00,43.48
             287.87,47.85 292.96,72.69 306.00,70.35 Z
           M 418.00,62.11
           C 416.95,62.42 416.05,62.64 415.11,63.17
             405.30,68.72 419.57,77.49 422.79,66.98
             423.02,65.41 422.96,63.62 422.79,62.11
             422.79,62.11 418.00,62.11 418.00,62.11 Z" />
    <path id="square-brackets"
          d="M 30.00,3.00
           C 30.00,3.00 30.00,17.00 30.00,17.00
             30.00,17.00 15.00,17.00 15.00,17.00
             15.00,17.00 15.00,83.00 15.00,83.00
             15.00,83.00 30.00,83.00 30.00,83.00
             30.00,83.00 30.00,97.00 30.00,97.00
             30.00,97.00 0.00,97.00 0.00,97.00
             0.00,97.00 0.00,3.00 0.00,3.00
             0.00,3.00 30.00,3.00 30.00,3.00 Z
           M 500.00,3.00
           C 500.00,3.00 500.00,97.00 500.00,97.00
             500.00,97.00 469.00,97.00 469.00,97.00
             469.00,97.00 469.00,83.00 469.00,83.00
             469.00,83.00 484.00,83.00 484.00,83.00
             484.00,83.00 484.00,17.00 484.00,17.00
             484.00,17.00 469.00,17.00 469.00,17.00
             469.00,17.00 469.00,3.00 469.00,3.00
             469.00,3.00 500.00,3.00 500.00,3.00 Z" />
</svg>
