<?xml version="1.0" encoding="UTF-8" standalone="no"?>
<!DOCTYPE svg PUBLIC "-//W3C//DTD SVG 20010904//EN"
              "http://www.w3.org/TR/2001/REC-SVG-20010904/DTD/svg10.dtd">

<svg xmlns="http://www.w3.org/2000/svg"
     width="46.2081mm" height="7.76014mm"
     viewBox="0 0 131 22">
  <style>
    /* <![CDATA[ */
    #wp, #idea {
        stroke: none;
        stroke-width: 0;
    }
    #wp { fill: #fbfbfb /* link_color */; }
    #idea { fill: #f67d77 /* main_color */; }
    /* ]]> */
  </style>
  <path id="wp"
        d="M 0.00,1.00
           C 1.13,4.86 4.73,19.03 7.51,20.98
             9.07,22.08 11.19,21.94 13.00,22.00
             13.00,22.00 16.00,8.00 16.00,8.00
             16.00,8.00 20.00,22.00 20.00,22.00
             20.00,22.00 25.30,21.01 25.30,21.01
             25.30,21.01 33.00,1.00 33.00,1.00
             33.00,1.00 27.00,1.00 27.00,1.00
             27.00,1.00 24.00,15.00 24.00,15.00
             22.62,12.16 20.18,3.26 18.46,2.04
             13.02,-1.82 10.89,11.95 10.00,15.00
             10.00,15.00 6.00,1.00 6.00,1.00
             6.00,1.00 0.00,1.00 0.00,1.00 Z
           M 34.00,1.00
           C 34.00,1.00 34.00,22.00 34.00,22.00
             34.00,22.00 39.00,22.00 39.00,22.00
             39.00,22.00 39.00,16.00 39.00,16.00
             41.57,15.97 44.58,16.12 46.89,14.83
             51.25,12.38 52.21,5.99 48.57,2.89
             45.50,0.28 38.00,1.00 34.00,1.00 Z
           M 39.00,12.00
           C 39.00,12.00 39.00,5.00 39.00,5.00
             48.45,5.33 47.13,11.34 39.00,12.00 Z" />
  <path id="idea"
        d="M 59.00,1.00
           C 59.00,1.00 59.00,22.00 59.00,22.00
             59.00,22.00 64.00,22.00 64.00,22.00
             64.00,22.00 64.00,1.00 64.00,1.00
             64.00,1.00 59.00,1.00 59.00,1.00 Z
           M 68.00,1.00
           C 68.00,1.00 68.00,22.00 68.00,22.00
             72.52,22.00 79.10,22.60 82.93,20.15
             89.98,15.69 89.08,5.89 82.93,2.45
             79.30,0.46 72.21,1.00 68.00,1.00 Z
           M 90.00,1.00
           C 90.00,1.00 90.00,21.93 90.00,21.93
             90.00,21.93 109.90,21.93 109.90,21.93
             109.90,21.93 116.21,18.58 116.21,18.58
             116.21,18.58 124.00,18.00 124.00,18.00
             125.34,21.83 126.09,21.67 130.00,22.00
             129.03,16.79 126.23,10.88 124.00,6.02
             122.96,3.76 121.92,1.27 119.00,1.27
             116.12,1.27 114.93,3.78 113.86,6.02
             111.63,10.70 109.18,15.97 108.00,21.00
             108.00,21.00 107.00,18.00 107.00,18.00
             107.00,18.00 95.00,18.00 95.00,18.00
             95.00,18.00 95.00,13.00 95.00,13.00
             95.00,13.00 105.00,13.00 105.00,13.00
             105.00,13.00 105.00,9.00 105.00,9.00
             105.00,9.00 95.00,9.00 95.00,9.00
             95.00,9.00 95.00,5.00 95.00,5.00
             95.00,5.00 106.00,5.00 106.00,5.00
             106.00,5.00 106.00,1.00 106.00,1.00
             106.00,1.00 90.00,1.00 90.00,1.00 Z
           M 73.00,18.00
           C 73.00,18.00 73.00,5.00 73.00,5.00
             75.19,5.06 77.69,4.92 79.61,6.17
             83.43,8.67 84.77,17.31 73.00,18.00 Z
           M 119.00,7.00
           C 119.00,7.00 122.00,14.00 122.00,14.00
             122.00,14.00 116.00,14.00 116.00,14.00
             116.00,14.00 119.00,7.00 119.00,7.00 Z" />
</svg>
