<?xml version="1.0" encoding="UTF-8" standalone="no"?>
<!-- Created with Inkscape (http://www.inkscape.org/) -->

<svg
   xmlns:dc="http://purl.org/dc/elements/1.1/"
   xmlns:cc="http://creativecommons.org/ns#"
   xmlns:rdf="http://www.w3.org/1999/02/22-rdf-syntax-ns#"
   xmlns:svg="http://www.w3.org/2000/svg"
   xmlns="http://www.w3.org/2000/svg"
   version="1.1"
   width="100%"
   height="100%"
   viewBox="0 0 63 63"
   id="Capa_1"
   xml:space="preserve"><metadata
   id="metadata45"><rdf:RDF><cc:Work
       rdf:about=""><dc:format>image/svg+xml</dc:format><dc:type
         rdf:resource="http://purl.org/dc/dcmitype/StillImage" /><dc:title></dc:title></cc:Work></rdf:RDF></metadata><defs
   id="defs43" />
<style>
	/* <![CDATA[ */
	.fill {
		fill: #ced4e0 /* thumb_border_color */;
		fill-opacity: 1;
	}
	/* ]]> */
</style>
<g
   transform="scale(0.13097713,0.13097713)"
   id="g3"
   class="fill">
	<g
   id="g5"
   class="fill">
		<path
   d="M 410.6,70.4 C 365.1,25 304.7,0 240.5,0 176.3,0 115.9,25 70.4,70.4 25,115.9 0,176.3 0,240.5 0,304.7 25,365.1 70.4,410.6 115.8,456 176.2,481 240.5,481 304.8,481 365.1,456 410.6,410.6 456,365.2 481,304.8 481,240.5 481,176.2 456,115.9 410.6,70.4 z M 240.5,454 C 122.8,454 27,358.2 27,240.5 27,122.8 122.8,27 240.5,27 358.2,27 454,122.8 454,240.5 454,358.2 358.2,454 240.5,454 z"
   id="path7"
   class="fill" />
		<path
   d="M 349.2,229.1 196.6,131.2 c -4.2,-2.7 -9.4,-2.9 -13.8,-0.5 -4.3,2.4 -7,6.9 -7,11.8 v 195.7 c 0,4.9 2.7,9.5 7,11.8 2,1.1 4.3,1.7 6.5,1.7 2.5,0 5.1,-0.7 7.3,-2.1 l 152.6,-97.9 c 3.9,-2.5 6.2,-6.8 6.2,-11.4 0,-4.6 -2.4,-8.7 -6.2,-11.2 z M 202.8,313.7 V 167.3 l 114.1,73.2 -114.1,73.2 z"
   id="path9"
   class="fill" />
	</g>
</g>
</svg>