<svg width="77" height="28" viewBox="0 0 77 28" fill="none" xmlns="http://www.w3.org/2000/svg">
<g clip-path="url(#clip0_2407_2687)">
<path fill-rule="evenodd" clip-rule="evenodd" d="M2.50917 0H74.4908C75.9022 0 77 1.3 77 3V25C77 26.7 75.8238 28 74.4908 28H2.50917C1.17617 28 0 26.7 0 25V3C0 1.3 1.17617 0 2.50917 0Z" fill="#424A4D"/>
<path d="M29 0H28V28H29V0Z" fill="#6B7579"/>
<path d="M21 11.552C20.9919 11.4785 20.9763 11.4061 20.9533 11.336V11.264C20.9159 11.1817 20.8661 11.1061 20.8056 11.04L16.1389 6.24C16.0746 6.17777 16.0011 6.12646 15.9211 6.088C15.8979 6.08461 15.8743 6.08461 15.8511 6.088C15.7721 6.04139 15.6848 6.01148 15.5944 6H12.4444C11.8256 6 11.2321 6.25286 10.7945 6.70294C10.3569 7.15303 10.1111 7.76348 10.1111 8.4V9.2H9.33333C8.71449 9.2 8.121 9.45286 7.68342 9.90294C7.24583 10.353 7 10.9635 7 11.6V19.6C7 20.2365 7.24583 20.847 7.68342 21.2971C8.121 21.7471 8.71449 22 9.33333 22H15.5556C16.1744 22 16.7679 21.7471 17.2055 21.2971C17.6431 20.847 17.8889 20.2365 17.8889 19.6V18.8H18.6667C19.2855 18.8 19.879 18.5471 20.3166 18.0971C20.7542 17.647 21 17.0365 21 16.4V11.6V11.552ZM16.3333 8.728L18.3478 10.8H17.1111C16.9048 10.8 16.707 10.7157 16.5611 10.5657C16.4153 10.4157 16.3333 10.2122 16.3333 10V8.728ZM16.3333 19.6C16.3333 19.8122 16.2514 20.0157 16.1055 20.1657C15.9597 20.3157 15.7618 20.4 15.5556 20.4H9.33333C9.12705 20.4 8.92922 20.3157 8.78336 20.1657C8.6375 20.0157 8.55556 19.8122 8.55556 19.6V11.6C8.55556 11.3878 8.6375 11.1843 8.78336 11.0343C8.92922 10.8843 9.12705 10.8 9.33333 10.8H10.1111V16.4C10.1111 17.0365 10.3569 17.647 10.7945 18.0971C11.2321 18.5471 11.8256 18.8 12.4444 18.8H16.3333V19.6ZM19.4444 16.4C19.4444 16.6122 19.3625 16.8157 19.2166 16.9657C19.0708 17.1157 18.8729 17.2 18.6667 17.2H12.4444C12.2382 17.2 12.0403 17.1157 11.8945 16.9657C11.7486 16.8157 11.6667 16.6122 11.6667 16.4V8.4C11.6667 8.18783 11.7486 7.98434 11.8945 7.83431C12.0403 7.68429 12.2382 7.6 12.4444 7.6H14.7778V10C14.7778 10.6365 15.0236 11.247 15.4612 11.6971C15.8988 12.1471 16.4923 12.4 17.1111 12.4H19.4444V16.4Z" fill="white"/>
<path d="M59.416 11.496H60.732L62.356 15.766C62.4493 16.018 62.5333 16.2607 62.608 16.494C62.692 16.7274 62.7667 16.956 62.832 17.18C62.8973 17.3947 62.9487 17.6047 62.986 17.81H63.042C63.098 17.5767 63.1867 17.2734 63.308 16.9C63.4293 16.5174 63.5553 16.1347 63.686 15.752L65.212 11.496H66.542L63.308 20.036C63.1307 20.5027 62.9207 20.9087 62.678 21.254C62.4447 21.6087 62.1553 21.8794 61.81 22.066C61.474 22.262 61.0633 22.36 60.578 22.36C60.354 22.36 60.158 22.346 59.99 22.318C59.822 22.2994 59.6773 22.276 59.556 22.248V21.268C59.6587 21.2867 59.78 21.3054 59.92 21.324C60.0693 21.3427 60.2233 21.352 60.382 21.352C60.6713 21.352 60.9187 21.296 61.124 21.184C61.3387 21.0814 61.5207 20.9274 61.67 20.722C61.8193 20.526 61.9453 20.2927 62.048 20.022L62.44 19.028L59.416 11.496Z" fill="white"/>
<path d="M56.2419 11.356C57.1659 11.356 57.9079 11.678 58.4679 12.322C59.0372 12.966 59.3219 13.9367 59.3219 15.234C59.3219 16.0834 59.1912 16.802 58.9299 17.39C58.6779 17.9687 58.3185 18.4074 57.8519 18.706C57.3945 18.9954 56.8532 19.14 56.2279 19.14C55.8452 19.14 55.5045 19.0887 55.2059 18.986C54.9072 18.8834 54.6505 18.7527 54.4359 18.594C54.2305 18.426 54.0532 18.244 53.9039 18.048H53.8199C53.8385 18.2067 53.8572 18.4074 53.8759 18.65C53.8945 18.8927 53.9039 19.1027 53.9039 19.28V22.36H52.6719V11.496H53.6799L53.8479 12.518H53.9039C54.0532 12.3034 54.2305 12.1074 54.4359 11.93C54.6505 11.7527 54.9025 11.6127 55.1919 11.51C55.4905 11.4074 55.8405 11.356 56.2419 11.356ZM56.0179 12.392C55.5139 12.392 55.1079 12.49 54.7999 12.686C54.4919 12.8727 54.2679 13.1574 54.1279 13.54C53.9879 13.9227 53.9132 14.408 53.9039 14.996V15.234C53.9039 15.85 53.9692 16.3727 54.0999 16.802C54.2305 17.2314 54.4499 17.558 54.7579 17.782C55.0752 18.006 55.5045 18.118 56.0459 18.118C56.5032 18.118 56.8765 17.992 57.1659 17.74C57.4645 17.488 57.6839 17.1474 57.8239 16.718C57.9732 16.2794 58.0479 15.78 58.0479 15.22C58.0479 14.3614 57.8799 13.6754 57.5439 13.162C57.2172 12.6487 56.7085 12.392 56.0179 12.392Z" fill="white"/>
<path d="M51.1393 15.234C51.1393 15.8594 51.0553 16.4147 50.8873 16.9C50.7286 17.376 50.4953 17.782 50.1873 18.118C49.8886 18.454 49.52 18.7107 49.0813 18.888C48.652 19.056 48.1713 19.14 47.6393 19.14C47.1446 19.14 46.6873 19.056 46.2673 18.888C45.8473 18.7107 45.4833 18.454 45.1753 18.118C44.8673 17.782 44.6246 17.376 44.4473 16.9C44.2793 16.4147 44.1953 15.8594 44.1953 15.234C44.1953 14.4034 44.3353 13.7034 44.6153 13.134C44.8953 12.5554 45.2966 12.1167 45.8193 11.818C46.342 11.51 46.9626 11.356 47.6813 11.356C48.3626 11.356 48.96 11.51 49.4733 11.818C49.996 12.1167 50.402 12.5554 50.6913 13.134C50.99 13.7034 51.1393 14.4034 51.1393 15.234ZM45.4693 15.234C45.4693 15.822 45.544 16.3354 45.6933 16.774C45.852 17.2034 46.0946 17.5347 46.4213 17.768C46.748 18.0014 47.1633 18.118 47.6673 18.118C48.1713 18.118 48.5866 18.0014 48.9133 17.768C49.24 17.5347 49.478 17.2034 49.6273 16.774C49.786 16.3354 49.8653 15.822 49.8653 15.234C49.8653 14.6367 49.786 14.128 49.6273 13.708C49.4686 13.288 49.226 12.966 48.8993 12.742C48.582 12.5087 48.1666 12.392 47.6533 12.392C46.888 12.392 46.3326 12.644 45.9873 13.148C45.642 13.652 45.4693 14.3474 45.4693 15.234Z" fill="white"/>
<path d="M40.6415 9.97001C40.1095 9.97001 39.6288 10.0633 39.1995 10.25C38.7702 10.4273 38.4062 10.6933 38.1075 11.048C37.8088 11.3933 37.5802 11.818 37.4215 12.322C37.2628 12.8167 37.1835 13.3767 37.1835 14.002C37.1835 14.8233 37.3095 15.5373 37.5615 16.144C37.8228 16.7507 38.2055 17.2173 38.7095 17.544C39.2228 17.8707 39.8622 18.034 40.6275 18.034C41.0662 18.034 41.4815 17.9967 41.8735 17.922C42.2655 17.8473 42.6482 17.754 43.0215 17.642V18.734C42.6482 18.874 42.2608 18.9767 41.8595 19.042C41.4675 19.1073 40.9962 19.14 40.4455 19.14C39.4282 19.14 38.5788 18.93 37.8975 18.51C37.2162 18.09 36.7028 17.4927 36.3575 16.718C36.0215 15.9433 35.8535 15.0333 35.8535 13.988C35.8535 13.232 35.9562 12.5413 36.1615 11.916C36.3762 11.2907 36.6842 10.7493 37.0855 10.292C37.4962 9.83468 38.0002 9.48468 38.5975 9.24201C39.1948 8.99001 39.8808 8.86401 40.6555 8.86401C41.1688 8.86401 41.6635 8.91535 42.1395 9.01801C42.6155 9.12068 43.0402 9.26535 43.4135 9.45201L42.9095 10.516C42.6015 10.376 42.2562 10.25 41.8735 10.138C41.5002 10.026 41.0895 9.97001 40.6415 9.97001Z" fill="white"/>
</g>
<defs>
<clipPath id="clip0_2407_2687">
<rect width="77" height="28" fill="white"/>
</clipPath>
</defs>
</svg>
